<?xml version="1.0" standalone="no"?>
<!DOCTYPE svg PUBLIC "-//W3C//DTD SVG 20010904//EN"
 "http://www.w3.org/TR/2001/REC-SVG-20010904/DTD/svg10.dtd">
<svg version="1.0" xmlns="http://www.w3.org/2000/svg"
 width="150pt" height="150pt" viewBox="0 0 256.000000 256.000000"
 preserveAspectRatio="xMidYMid meet">

<g transform="translate(0.000000,256.000000) scale(0.100000,-0.100000)"
fill="#000000" stroke="none">
<path d="M798 2053 c7 -3 16 -2 19 1 4 3 -2 6 -13 5 -11 0 -14 -3 -6 -6z"/>
<path d="M1727 2036 c-4 -10 -1 -13 8 -9 8 3 12 9 9 14 -7 12 -11 11 -17 -5z"/>
<path d="M1290 1893 c0 -5 16 -9 35 -10 19 -2 35 2 35 7 0 6 -16 10 -35 10
-19 0 -35 -3 -35 -7z"/>
<path d="M510 1770 c0 -22 -5 -30 -18 -30 -19 0 -42 -18 -42 -32 0 -4 7 -8 15
-8 8 0 15 -6 15 -14 0 -7 7 -19 15 -26 16 -13 21 -55 7 -63 -4 -3 -4 -63 0
-134 4 -70 5 -141 2 -158 -2 -16 -11 -102 -19 -190 -8 -88 -23 -203 -34 -255
-11 -52 -22 -114 -26 -137 l-7 -42 36 11 c31 10 46 8 99 -10 57 -21 170 -33
192 -21 6 3 26 6 45 8 93 7 256 120 361 251 45 56 93 139 85 147 -3 3 -10 -6
-16 -21 -15 -39 -81 -125 -133 -173 -26 -24 -49 -43 -52 -43 -3 0 14 26 38 58
51 69 85 136 131 257 l34 90 4 -45 c4 -45 4 -45 16 -17 7 16 12 54 12 86 0
163 -114 377 -232 435 -94 46 -314 95 -374 83 -15 -3 -45 1 -67 9 -22 8 -50
14 -63 14 -20 0 -24 -5 -24 -30z m200 -217 c156 -26 202 -43 263 -102 21 -20
51 -58 65 -86 24 -44 27 -61 27 -150 0 -89 -3 -106 -27 -151 -34 -64 -82 -107
-112 -99 -15 5 -17 4 -8 -3 25 -17 -48 -34 -172 -40 l-118 -5 5 29 c15 76 29
345 26 477 -4 129 -2 147 11 141 8 -4 26 -8 40 -11z"/>
<path d="M935 1439 c-4 -6 -5 -12 -2 -15 2 -3 7 2 10 11 7 17 1 20 -8 4z"/>
<path d="M900 1209 c0 -14 53 -24 58 -11 2 7 9 9 15 5 7 -3 9 -3 5 2 -10 11
-78 14 -78 4z"/>
<path d="M1005 1050 c-3 -5 -1 -10 4 -10 6 0 11 5 11 10 0 6 -2 10 -4 10 -3 0
-8 -4 -11 -10z"/>
<path d="M1589 1777 c-72 -48 -43 -97 66 -112 254 -34 315 -66 315 -165 0 -57
-23 -91 -82 -121 -41 -21 -309 -92 -317 -83 -2 2 1 4 6 4 7 0 11 21 10 53 0
28 3 83 7 120 10 80 -3 121 -45 142 -59 31 -129 6 -168 -61 -12 -19 -24 -33
-29 -31 -4 3 -7 -5 -8 -16 -1 -12 -8 -49 -17 -82 -31 -114 -24 -317 18 -513 8
-40 15 -75 15 -78 0 -2 -11 -4 -25 -4 -14 0 -25 -4 -25 -10 0 -5 13 -10 28
-10 26 0 30 -5 45 -60 22 -76 21 -80 -5 -80 -30 0 -19 -7 20 -13 28 -5 32 -3
27 13 -6 19 13 70 26 70 4 0 10 -13 14 -29 3 -16 13 -32 21 -35 9 -4 12 -11 8
-18 -6 -10 -4 -10 7 -2 8 6 26 14 40 18 41 9 59 69 70 221 5 72 11 139 14 151
4 17 22 26 87 44 46 13 121 41 166 62 46 21 86 38 87 38 11 0 106 69 143 104
76 71 114 174 98 261 -9 46 -72 116 -137 153 -26 14 -43 29 -38 33 6 3 -2 6
-18 7 -15 0 -66 12 -112 26 -115 36 -261 37 -312 3z"/>
<path d="M1311 1664 c0 -11 3 -14 6 -6 3 7 2 16 -1 19 -3 4 -6 -2 -5 -13z"/>
<path d="M1520 1659 c0 -5 5 -7 10 -4 6 3 10 8 10 11 0 2 -4 4 -10 4 -5 0 -10
-5 -10 -11z"/>
<path d="M2048 1143 c7 -3 16 -2 19 1 4 3 -2 6 -13 5 -11 0 -14 -3 -6 -6z"/>
<path d="M1235 1130 c-3 -5 -1 -10 4 -10 6 0 11 5 11 10 0 6 -2 10 -4 10 -3 0
-8 -4 -11 -10z"/>
<path d="M1865 1131 c-3 -5 -1 -12 5 -16 5 -3 10 1 10 9 0 18 -6 21 -15 7z"/>
<path d="M1980 1131 c0 -5 -10 -12 -22 -14 -16 -4 -14 -5 6 -4 27 2 52 27 27
27 -6 0 -11 -4 -11 -9z"/>
<path d="M2051 903 c-1 -14 5 -23 14 -23 8 0 15 5 15 11 0 5 -4 8 -9 4 -5 -3
-12 3 -14 12 -4 14 -5 13 -6 -4z"/>
<path d="M1761 894 c0 -11 3 -14 6 -6 3 7 2 16 -1 19 -3 4 -6 -2 -5 -13z"/>
<path d="M2007 897 c-3 -7 3 -13 13 -13 10 0 16 6 13 13 -3 7 -9 13 -13 13 -4
0 -10 -6 -13 -13z"/>
<path d="M1190 829 c0 -5 -4 -7 -10 -4 -5 3 -10 -1 -10 -9 0 -10 6 -13 15 -10
14 6 22 34 10 34 -3 0 -5 -5 -5 -11z"/>
<path d="M1246 823 c-6 -14 -5 -15 5 -6 7 7 10 15 7 18 -3 3 -9 -2 -12 -12z"/>
<path d="M1720 818 c0 -12 38 -10 45 2 4 6 -5 9 -19 8 -15 -1 -26 -6 -26 -10z"/>
<path d="M1886 753 c-12 -12 -6 -23 14 -23 11 0 20 5 20 11 0 6 9 8 23 3 12
-3 19 -3 15 1 -10 10 -64 16 -72 8z"/>
<path d="M2041 747 c-9 -12 -8 -16 3 -20 19 -7 32 11 19 24 -6 6 -14 5 -22 -4z"/>
<path d="M1441 664 c0 -11 3 -14 6 -6 3 7 2 16 -1 19 -3 4 -6 -2 -5 -13z"/>
<path d="M1688 593 c6 -2 18 -2 25 0 6 3 1 5 -13 5 -14 0 -19 -2 -12 -5z"/>
<path d="M1726 585 c-3 -8 -1 -15 4 -15 6 0 10 7 10 15 0 8 -2 15 -4 15 -2 0
-6 -7 -10 -15z"/>
<path d="M790 439 c0 -5 5 -7 10 -4 6 3 10 8 10 11 0 2 -4 4 -10 4 -5 0 -10
-5 -10 -11z"/>
</g>
</svg>
